<mxfile host="app.diagrams.net" agent="Mozilla/5.0 (Windows NT 10.0; Win64; x64) AppleWebKit/537.36 (KHTML, like Gecko) Chrome/128.0.0.0 Safari/537.36" version="24.7.13">
  <diagram name="Page-1" id="ON-6lyFYmii31hYDbehs">
    <mxGraphModel dx="1967" dy="1036" grid="0" gridSize="10" guides="1" tooltips="1" connect="1" arrows="1" fold="1" page="0" pageScale="1" pageWidth="850" pageHeight="1100" math="0" shadow="0">
      <root>
        <mxCell id="0" />
        <mxCell id="1" parent="0" />
        <mxCell id="tCbkf5cZ0JOztSYl1kHS-6" value="Anggota" style="whiteSpace=wrap;html=1;align=center;" vertex="1" parent="1">
          <mxGeometry x="-263" y="29" width="100" height="40" as="geometry" />
        </mxCell>
        <mxCell id="tCbkf5cZ0JOztSYl1kHS-7" value="Pinjaman" style="whiteSpace=wrap;html=1;align=center;" vertex="1" parent="1">
          <mxGeometry x="-263" y="-169" width="100" height="40" as="geometry" />
        </mxCell>
        <mxCell id="tCbkf5cZ0JOztSYl1kHS-8" value="Simpanan" style="whiteSpace=wrap;html=1;align=center;" vertex="1" parent="1">
          <mxGeometry x="47" y="29" width="100" height="40" as="geometry" />
        </mxCell>
        <mxCell id="tCbkf5cZ0JOztSYl1kHS-9" value="Transaksi" style="whiteSpace=wrap;html=1;align=center;" vertex="1" parent="1">
          <mxGeometry x="-564" y="29" width="100" height="40" as="geometry" />
        </mxCell>
        <mxCell id="tCbkf5cZ0JOztSYl1kHS-18" value="miliki" style="shape=rhombus;perimeter=rhombusPerimeter;whiteSpace=wrap;html=1;align=center;" vertex="1" parent="1">
          <mxGeometry x="-273" y="-67" width="120" height="60" as="geometry" />
        </mxCell>
        <mxCell id="tCbkf5cZ0JOztSYl1kHS-22" value="miliki" style="shape=rhombus;perimeter=rhombusPerimeter;whiteSpace=wrap;html=1;align=center;" vertex="1" parent="1">
          <mxGeometry x="-417" y="19" width="120" height="60" as="geometry" />
        </mxCell>
        <mxCell id="tCbkf5cZ0JOztSYl1kHS-17" value="miliki" style="shape=rhombus;perimeter=rhombusPerimeter;whiteSpace=wrap;html=1;align=center;" vertex="1" parent="1">
          <mxGeometry x="-118" y="19" width="120" height="60" as="geometry" />
        </mxCell>
        <mxCell id="tCbkf5cZ0JOztSYl1kHS-32" value="" style="endArrow=none;html=1;rounded=0;fontSize=12;startSize=8;endSize=8;curved=1;" edge="1" parent="1" source="tCbkf5cZ0JOztSYl1kHS-22" target="tCbkf5cZ0JOztSYl1kHS-9">
          <mxGeometry relative="1" as="geometry">
            <mxPoint x="-562" y="230" as="sourcePoint" />
            <mxPoint x="-402" y="230" as="targetPoint" />
          </mxGeometry>
        </mxCell>
        <mxCell id="tCbkf5cZ0JOztSYl1kHS-33" value="N" style="resizable=0;html=1;whiteSpace=wrap;align=right;verticalAlign=bottom;" connectable="0" vertex="1" parent="tCbkf5cZ0JOztSYl1kHS-32">
          <mxGeometry x="1" relative="1" as="geometry">
            <mxPoint x="17" as="offset" />
          </mxGeometry>
        </mxCell>
        <mxCell id="tCbkf5cZ0JOztSYl1kHS-34" value="" style="endArrow=none;html=1;rounded=0;fontSize=12;startSize=8;endSize=8;curved=1;" edge="1" parent="1" source="tCbkf5cZ0JOztSYl1kHS-22" target="tCbkf5cZ0JOztSYl1kHS-6">
          <mxGeometry relative="1" as="geometry">
            <mxPoint x="-595" y="189" as="sourcePoint" />
            <mxPoint x="-435" y="189" as="targetPoint" />
          </mxGeometry>
        </mxCell>
        <mxCell id="tCbkf5cZ0JOztSYl1kHS-35" value="1" style="resizable=0;html=1;whiteSpace=wrap;align=right;verticalAlign=bottom;" connectable="0" vertex="1" parent="tCbkf5cZ0JOztSYl1kHS-34">
          <mxGeometry x="1" relative="1" as="geometry">
            <mxPoint x="-3" as="offset" />
          </mxGeometry>
        </mxCell>
        <mxCell id="tCbkf5cZ0JOztSYl1kHS-36" value="" style="endArrow=none;html=1;rounded=0;fontSize=12;startSize=8;endSize=8;curved=1;" edge="1" parent="1" source="tCbkf5cZ0JOztSYl1kHS-18" target="tCbkf5cZ0JOztSYl1kHS-6">
          <mxGeometry relative="1" as="geometry">
            <mxPoint x="-132" y="-23" as="sourcePoint" />
            <mxPoint x="-186" y="39" as="targetPoint" />
          </mxGeometry>
        </mxCell>
        <mxCell id="tCbkf5cZ0JOztSYl1kHS-37" value="1" style="resizable=0;html=1;whiteSpace=wrap;align=right;verticalAlign=bottom;" connectable="0" vertex="1" parent="tCbkf5cZ0JOztSYl1kHS-36">
          <mxGeometry x="1" relative="1" as="geometry">
            <mxPoint y="-3" as="offset" />
          </mxGeometry>
        </mxCell>
        <mxCell id="tCbkf5cZ0JOztSYl1kHS-38" value="" style="endArrow=none;html=1;rounded=0;fontSize=12;startSize=8;endSize=8;curved=1;" edge="1" parent="1" source="tCbkf5cZ0JOztSYl1kHS-17" target="tCbkf5cZ0JOztSYl1kHS-6">
          <mxGeometry relative="1" as="geometry">
            <mxPoint x="-122" y="-13" as="sourcePoint" />
            <mxPoint x="-176" y="49" as="targetPoint" />
          </mxGeometry>
        </mxCell>
        <mxCell id="tCbkf5cZ0JOztSYl1kHS-39" value="1" style="resizable=0;html=1;whiteSpace=wrap;align=right;verticalAlign=bottom;" connectable="0" vertex="1" parent="tCbkf5cZ0JOztSYl1kHS-38">
          <mxGeometry x="1" relative="1" as="geometry">
            <mxPoint x="13" as="offset" />
          </mxGeometry>
        </mxCell>
        <mxCell id="tCbkf5cZ0JOztSYl1kHS-40" value="" style="endArrow=none;html=1;rounded=0;fontSize=12;startSize=8;endSize=8;curved=1;" edge="1" parent="1" source="tCbkf5cZ0JOztSYl1kHS-17" target="tCbkf5cZ0JOztSYl1kHS-8">
          <mxGeometry relative="1" as="geometry">
            <mxPoint x="-97" y="-66" as="sourcePoint" />
            <mxPoint x="-58" y="-116" as="targetPoint" />
          </mxGeometry>
        </mxCell>
        <mxCell id="tCbkf5cZ0JOztSYl1kHS-41" value="N" style="resizable=0;html=1;whiteSpace=wrap;align=right;verticalAlign=bottom;" connectable="0" vertex="1" parent="tCbkf5cZ0JOztSYl1kHS-40">
          <mxGeometry x="1" relative="1" as="geometry" />
        </mxCell>
        <mxCell id="tCbkf5cZ0JOztSYl1kHS-42" value="" style="endArrow=none;html=1;rounded=0;fontSize=12;startSize=8;endSize=8;curved=1;" edge="1" parent="1" source="tCbkf5cZ0JOztSYl1kHS-18" target="tCbkf5cZ0JOztSYl1kHS-7">
          <mxGeometry relative="1" as="geometry">
            <mxPoint x="-97" y="-66" as="sourcePoint" />
            <mxPoint x="-58" y="-116" as="targetPoint" />
          </mxGeometry>
        </mxCell>
        <mxCell id="tCbkf5cZ0JOztSYl1kHS-43" value="N" style="resizable=0;html=1;whiteSpace=wrap;align=right;verticalAlign=bottom;" connectable="0" vertex="1" parent="tCbkf5cZ0JOztSYl1kHS-42">
          <mxGeometry x="1" relative="1" as="geometry">
            <mxPoint y="20" as="offset" />
          </mxGeometry>
        </mxCell>
      </root>
    </mxGraphModel>
  </diagram>
</mxfile>
